<?xml version="1.0" encoding="UTF-8" standalone="no"?>
<!-- Created with Inkscape (http://www.inkscape.org/) -->

<svg
   width="30.313368mm"
   height="34.466125mm"
   viewBox="0 0 30.313368 34.466126"
   version="1.1"
   id="svg5"
   inkscape:version="1.1.1 (3bf5ae0d25, 2021-09-20, custom)"
   sodipodi:docname="pochoir7.svg"
   xmlns:inkscape="http://www.inkscape.org/namespaces/inkscape"
   xmlns:sodipodi="http://sodipodi.sourceforge.net/DTD/sodipodi-0.dtd"
   xmlns="http://www.w3.org/2000/svg"
   xmlns:svg="http://www.w3.org/2000/svg">
  <sodipodi:namedview
     id="namedview7"
     pagecolor="#ffffff"
     bordercolor="#666666"
     borderopacity="1.0"
     inkscape:pageshadow="2"
     inkscape:pageopacity="0.0"
     inkscape:pagecheckerboard="0"
     inkscape:document-units="mm"
     showgrid="true"
     showborder="true"
     inkscape:zoom="1.2810466"
     inkscape:cx="-165.87999"
     inkscape:cy="186.1759"
     inkscape:window-width="1920"
     inkscape:window-height="1200"
     inkscape:window-x="1920"
     inkscape:window-y="0"
     inkscape:window-maximized="1"
     inkscape:current-layer="layer1"
     borderlayer="false"
     fit-margin-top="0"
     fit-margin-left="0"
     fit-margin-right="0"
     fit-margin-bottom="0"
     inkscape:showpageshadow="false" />
  <defs
     id="defs2" />
  <g
     inkscape:label="Geruza 1"
     inkscape:groupmode="layer"
     id="layer1"
     transform="translate(-49.827216,-32.23285)">
    <g
       id="g1023"
       transform="matrix(0.37263323,0,0,0.37221855,31.259888,20.235237)">
      <path
         style="opacity:0.970312;fill:#00ff00;fill-opacity:0.316005;stroke:#050000;stroke-width:1.00157"
         id="path31"
         sodipodi:type="arc"
         sodipodi:cx="95.977112"
         sodipodi:cy="85.569542"
         sodipodi:rx="7.4549918"
         sodipodi:ry="6.8849735"
         sodipodi:start="3.7018608"
         sodipodi:end="3.7014594"
         sodipodi:open="true"
         sodipodi:arc-type="arc"
         d="m 89.661894,81.910775 a 7.4549918,6.8849735 0 0 1 10.276266,-2.173948 7.4549918,6.8849735 0 0 1 2.35496,9.490311 7.4549918,6.8849735 0 0 1 -10.275789,2.175853 7.4549918,6.8849735 0 0 1 -2.357027,-9.489875" />
      <path
         style="opacity:0.970312;fill:#808080;fill-opacity:0.316005;stroke:#050000;stroke-width:1.00157"
         id="path31-7"
         sodipodi:type="arc"
         sodipodi:cx="95.789154"
         sodipodi:cy="52.439552"
         sodipodi:rx="7.4549918"
         sodipodi:ry="6.8849735"
         sodipodi:start="3.7018608"
         sodipodi:end="3.7014594"
         sodipodi:open="true"
         sodipodi:arc-type="arc"
         d="m 89.473936,48.780785 a 7.4549918,6.8849735 0 0 1 10.276267,-2.173948 7.4549918,6.8849735 0 0 1 2.354967,9.490312 7.4549918,6.8849735 0 0 1 -10.275797,2.175853 7.4549918,6.8849735 0 0 1 -2.357026,-9.489875" />
      <path
         style="opacity:0.970312;fill:#808080;fill-opacity:0.316005;stroke:#050000;stroke-width:1.00157"
         id="path31-7-1"
         sodipodi:type="arc"
         sodipodi:cx="95.789154"
         sodipodi:cy="117.43955"
         sodipodi:rx="7.4549918"
         sodipodi:ry="6.8849735"
         sodipodi:start="3.7018608"
         sodipodi:end="3.7014594"
         sodipodi:open="true"
         sodipodi:arc-type="arc"
         d="m 89.473936,113.78079 a 7.4549918,6.8849735 0 0 1 10.276267,-2.17395 7.4549918,6.8849735 0 0 1 2.354967,9.49031 7.4549918,6.8849735 0 0 1 -10.275797,2.17585 7.4549918,6.8849735 0 0 1 -2.357026,-9.48987" />
      <path
         style="opacity:0.970312;fill:#808080;fill-opacity:0.316005;stroke:#050000;stroke-width:1.00157"
         id="path31-7-1-5"
         sodipodi:type="arc"
         sodipodi:cx="71.268715"
         sodipodi:cy="71.156425"
         sodipodi:rx="7.4549918"
         sodipodi:ry="6.8849735"
         sodipodi:start="3.7018608"
         sodipodi:end="3.7014594"
         sodipodi:open="true"
         sodipodi:arc-type="arc"
         d="M 64.953497,67.497659 A 7.4549918,6.8849735 0 0 1 75.229763,65.32371 7.4549918,6.8849735 0 0 1 77.584728,74.814022 7.4549918,6.8849735 0 0 1 67.308934,76.989875 7.4549918,6.8849735 0 0 1 64.951907,67.5" />
      <path
         style="opacity:0.970312;fill:#808080;fill-opacity:0.316005;stroke:#050000;stroke-width:1.00157"
         id="path31-7-2"
         sodipodi:type="arc"
         sodipodi:cx="121.47783"
         sodipodi:cy="73.079163"
         sodipodi:rx="7.4549918"
         sodipodi:ry="6.8849735"
         sodipodi:start="3.7018608"
         sodipodi:end="3.7014594"
         sodipodi:open="true"
         sodipodi:arc-type="arc"
         d="m 115.16261,69.420396 a 7.4549918,6.8849735 0 0 1 10.27627,-2.173949 7.4549918,6.8849735 0 0 1 2.35496,9.490312 7.4549918,6.8849735 0 0 1 -10.27579,2.175853 7.4549918,6.8849735 0 0 1 -2.35703,-9.489875" />
      <path
         style="opacity:0.970312;fill:#808080;fill-opacity:0.316005;stroke:#050000;stroke-width:1.00157"
         id="path31-7-2-6"
         sodipodi:type="arc"
         sodipodi:cx="71.26712"
         sodipodi:cy="101.15877"
         sodipodi:rx="7.4549918"
         sodipodi:ry="6.8849735"
         sodipodi:start="3.7018608"
         sodipodi:end="3.7014594"
         sodipodi:open="true"
         sodipodi:arc-type="arc"
         d="m 64.951903,97.500001 a 7.4549918,6.8849735 0 0 1 10.276266,-2.173949 7.4549918,6.8849735 0 0 1 2.354964,9.490308 7.4549918,6.8849735 0 0 1 -10.275794,2.17586 7.4549918,6.8849735 0 0 1 -2.357026,-9.489878" />
      <path
         style="opacity:0.970312;fill:#808080;fill-opacity:0.316005;stroke:#050000;stroke-width:1.00157"
         id="path31-7-2-1"
         sodipodi:type="arc"
         sodipodi:cx="123.22865"
         sodipodi:cy="101.15877"
         sodipodi:rx="7.4549918"
         sodipodi:ry="6.8849735"
         sodipodi:start="3.7018608"
         sodipodi:end="3.7014594"
         sodipodi:open="true"
         sodipodi:arc-type="arc"
         d="m 116.91344,97.500001 a 7.4549918,6.8849735 0 0 1 10.27626,-2.173949 7.4549918,6.8849735 0 0 1 2.35497,9.490308 7.4549918,6.8849735 0 0 1 -10.2758,2.17586 7.4549918,6.8849735 0 0 1 -2.35702,-9.489878" />
      <path
         style="fill:none;stroke:#000000;stroke-width:0.922317;stroke-linecap:butt;stroke-linejoin:miter;stroke-miterlimit:4;stroke-dasharray:none;stroke-opacity:1"
         d="m 95.262794,78 c 0,-8.788503 10e-7,-17.239048 0,-18"
         id="path90"
         sodipodi:nodetypes="cc" />
      <path
         style="fill:none;stroke:#000000;stroke-width:0.922317;stroke-linecap:butt;stroke-linejoin:miter;stroke-miterlimit:4;stroke-dasharray:none;stroke-opacity:1"
         d="m 95.648796,110.17477 c 0,-8.7885 10e-7,-17.23905 0,-18"
         id="path90-6"
         sodipodi:nodetypes="cc" />
      <path
         style="fill:none;stroke:#000000;stroke-width:0.620667;stroke-linecap:butt;stroke-linejoin:miter;stroke-miterlimit:4;stroke-dasharray:none;stroke-opacity:1"
         d="M 102.191,81.999998 114.31535,75"
         id="path1388" />
      <path
         style="fill:none;stroke:#000000;stroke-width:0.527333;stroke-linecap:butt;stroke-linejoin:miter;stroke-miterlimit:4;stroke-dasharray:none;stroke-opacity:1"
         d="m 77.634724,97.369147 12.124355,-7.000001 c 0,0 1.50617,-1.009284 10e-7,10e-7"
         id="path1390"
         sodipodi:nodetypes="ccc" />
      <path
         style="fill:none;stroke:#000000;stroke-width:0.565;stroke-linecap:butt;stroke-linejoin:miter;stroke-miterlimit:4;stroke-dasharray:none;stroke-opacity:1"
         d="m 102.6899,89.582877 12.99037,7.499995 c 0,0 1.74339,0.85688 0,0"
         id="path1390-0"
         sodipodi:nodetypes="ccc" />
      <path
         style="fill:none;stroke:#000000;stroke-width:0.489667;stroke-linecap:butt;stroke-linejoin:miter;stroke-miterlimit:4;stroke-dasharray:none;stroke-opacity:1"
         d="m 77.942286,75 11.258331,6.5 c -0.188868,-0.09283 -5.564192,-3.329976 -0.990274,-0.68635"
         id="path1390-0-9"
         sodipodi:nodetypes="ccc" />
      <path
         style="fill:none;stroke:#000000;stroke-width:0.264583px;stroke-linecap:butt;stroke-linejoin:miter;stroke-opacity:1"
         d="m 69.282031,39.999999 c 0,15.000001 0,15.000001 0,15.000001"
         id="path2664" />
      <path
         style="fill:none;stroke:#000000;stroke-width:0.264583px;stroke-linecap:butt;stroke-linejoin:miter;stroke-opacity:1"
         d="M 82.272411,47.5 69.282031,55 56.291651,47.5"
         id="path2666"
         sodipodi:nodetypes="ccc" />
      <text
         xml:space="preserve"
         style="font-style:normal;font-variant:normal;font-weight:normal;font-stretch:normal;font-size:9.54531px;line-height:1.25;font-family:sans-serif;-inkscape-font-specification:'sans-serif, Normal';font-variant-ligatures:normal;font-variant-caps:normal;font-variant-numeric:normal;font-variant-east-asian:normal;fill:#000000;fill-opacity:1;stroke:none;stroke-width:0.238633"
         x="100.72363"
         y="37.887981"
         id="text4801"
         transform="scale(0.81735619,1.2234568)"><tspan
           sodipodi:role="line"
           id="tspan6951"
           x="100.72363"
           y="37.887981">x</tspan></text>
      <text
         xml:space="preserve"
         style="font-style:normal;font-variant:normal;font-weight:normal;font-stretch:normal;font-size:9.54531px;line-height:1.25;font-family:sans-serif;-inkscape-font-specification:'sans-serif, Normal';font-variant-ligatures:normal;font-variant-caps:normal;font-variant-numeric:normal;font-variant-east-asian:normal;fill:#000000;fill-opacity:1;stroke:none;stroke-width:0.238633"
         x="80.461937"
         y="31.565699"
         id="text4801-4"
         transform="scale(0.81735619,1.2234568)"><tspan
           sodipodi:role="line"
           id="tspan6931"
           x="80.461937"
           y="31.565699">z</tspan></text>
      <text
         xml:space="preserve"
         style="font-style:normal;font-variant:normal;font-weight:normal;font-stretch:normal;font-size:9.54531px;line-height:1.25;font-family:sans-serif;-inkscape-font-specification:'sans-serif, Normal';font-variant-ligatures:normal;font-variant-caps:normal;font-variant-numeric:normal;font-variant-east-asian:normal;fill:#000000;fill-opacity:1;stroke:none;stroke-width:0.238633"
         x="60.677307"
         y="39.165154"
         id="text4801-4-0"
         transform="scale(0.81735619,1.2234568)"><tspan
           sodipodi:role="line"
           id="tspan6971"
           x="60.677307"
           y="39.165154">y</tspan></text>
    </g>
  </g>
</svg>
